<svg xmlns="http://www.w3.org/2000/svg" fill="none" viewBox="0 0 96 96" id="Visual-Studio-Code--Streamline-Svg-Logos"><desc>Visual Studio Code Streamline Icon: https://streamlinehq.com</desc><mask id="a" width="94" height="94" x="1" y="1" maskUnits="userSpaceOnUse" style="mask-type:luminance"><path fill="#ffffff" d="M67.657 94.3579c1.4805.5769 3.1688.5398 4.6633-.1791l19.353-9.3123C93.7068 83.888 95 81.8295 95 79.5717V16.4283c0-2.2579-1.2932-4.316-3.3267-5.2946l-19.353-9.31258c-1.9612-.943655-4.2564-.71252-5.9774.5388-.2461.17875-.4803.37833-.6999.59828L28.5938 36.7588 12.456 24.5089c-1.5023-1.1404-3.60359-1.047-4.99882.2222l-5.17593 4.7083c-1.706649 1.5524-1.708606 4.2374-.00423 5.7923L16.2723 47.9998 2.27702 60.768c-1.704376 1.555-1.702419 4.2399.00423 5.7924l5.17593 4.7081c1.39523 1.2693 3.49652 1.3626 4.99882.2225l16.1378-12.2501L65.643 93.0416c.586.5864 1.2741 1.0281 2.014 1.3163Zm3.8573-67.6971-28.1119 21.339 28.1119 21.3391V26.6608Z"></path></mask><g mask="url(#a)"><path fill="#0065a9" d="M91.7307 11.1484 72.3626 1.823c-2.2417-1.079418-4.921-.6241-6.6806 1.13532L2.2778 60.7682c-1.705416 1.555-1.703456 4.2399.00423 5.7924l5.17906 4.7081c1.39612 1.2693 3.49871 1.3626 5.00181.2225l76.3534-57.9235c2.5615-1.9432 6.2407-.1163 6.2407 3.099v-.2249c0-2.2569-1.2929-4.3143-3.3263-5.2934Z"></path></g><mask id="b" width="94" height="94" x="1" y="1" maskUnits="userSpaceOnUse" style="mask-type:luminance"><path fill="#ffffff" d="M67.657 94.3579c1.4805.5769 3.1688.5398 4.6633-.1791l19.353-9.3123C93.7068 83.888 95 81.8295 95 79.5717V16.4283c0-2.2579-1.2932-4.316-3.3267-5.2946l-19.353-9.31258c-1.9612-.943655-4.2564-.71252-5.9774.5388-.2461.17875-.4803.37833-.6999.59828L28.5938 36.7588 12.456 24.5089c-1.5023-1.1404-3.60359-1.047-4.99882.2222l-5.17593 4.7083c-1.706649 1.5524-1.708606 4.2374-.00423 5.7923L16.2723 47.9998 2.27702 60.768c-1.704376 1.555-1.702419 4.2399.00423 5.7924l5.17593 4.7081c1.39523 1.2693 3.49652 1.3626 4.99882.2225l16.1378-12.2501L65.643 93.0416c.586.5864 1.2741 1.0281 2.014 1.3163Zm3.8573-67.6971-28.1119 21.339 28.1119 21.3391V26.6608Z"></path></mask><g mask="url(#b)"><path fill="#007acc" d="m91.7307 84.8509-19.3681 9.3255c-2.2417 1.0792-4.921.6238-6.6806-1.1354L2.2778 35.2311c-1.705416-1.5549-1.703456-4.2399.00423-5.7923l5.17906-4.7083c1.39612-1.2692 3.49871-1.3626 5.00181-.2223l76.3534 57.9233c2.5615 1.9432 6.2407.1164 6.2407-3.099v.225c0 2.2568-1.2929 4.3141-3.3263 5.2934Z"></path></g><mask id="c" width="94" height="94" x="1" y="1" maskUnits="userSpaceOnUse" style="mask-type:luminance"><path fill="#ffffff" d="M67.657 94.3579c1.4805.5769 3.1688.5398 4.6633-.1791l19.353-9.3123C93.7068 83.888 95 81.8295 95 79.5717V16.4283c0-2.2579-1.2932-4.316-3.3267-5.2946l-19.353-9.31258c-1.9612-.943655-4.2564-.71252-5.9774.5388-.2461.17875-.4803.37833-.6999.59828L28.5938 36.7588 12.456 24.5089c-1.5023-1.1404-3.60359-1.047-4.99882.2222l-5.17593 4.7083c-1.706649 1.5524-1.708606 4.2374-.00423 5.7923L16.2723 47.9998 2.27702 60.768c-1.704376 1.555-1.702419 4.2399.00423 5.7924l5.17593 4.7081c1.39523 1.2693 3.49652 1.3626 4.99882.2225l16.1378-12.2501L65.643 93.0416c.586.5864 1.2741 1.0281 2.014 1.3163Zm3.8573-67.6971-28.1119 21.339 28.1119 21.3391V26.6608Z"></path></mask><g mask="url(#c)"><path fill="#1f9cf0" d="M72.3019 94.1844c-2.2424 1.0784-4.9217.6227-6.6813-1.1368 2.1679 2.1678 5.875.6323 5.875-2.4338V5.39755c0-3.06602-3.7071-4.601509-5.875-2.43349 1.7596-1.75958 4.4389-2.215545 6.6813-1.13708l19.3648 9.31262c2.0349.9785 3.3289 3.0367 3.3289 5.2946v63.1434c0 2.2579-1.294 4.316-3.3289 5.2945l-19.3648 9.3123Z"></path></g><mask id="d" width="94" height="94" x="1" y="1" maskUnits="userSpaceOnUse" style="mask-type:luminance"><path fill="#ffffff" d="M67.657 94.3579c1.4805.5769 3.1688.5398 4.6633-.1791l19.353-9.3123C93.7068 83.888 95 81.8295 95 79.5717V16.4283c0-2.2579-1.2932-4.316-3.3267-5.2946l-19.353-9.31258c-1.9612-.943655-4.2564-.71252-5.9774.5388-.2461.17875-.4803.37833-.6999.59828L28.5938 36.7588 12.456 24.5089c-1.5023-1.1404-3.60359-1.047-4.99882.2222l-5.17593 4.7083c-1.706649 1.5524-1.708606 4.2374-.00423 5.7923L16.2723 47.9998 2.27702 60.768c-1.704376 1.555-1.702419 4.2399.00423 5.7924l5.17593 4.7081c1.39523 1.2693 3.49652 1.3626 4.99882.2225l16.1378-12.2501L65.643 93.0416c.586.5864 1.2741 1.0281 2.014 1.3163Zm3.8573-67.6971-28.1119 21.339 28.1119 21.3391V26.6608Z"></path></mask><g mask="url(#d)"><path fill="url(#e)" fill-opacity=".25" d="M67.6571 94.358c1.4805.5765 3.1688.5398 4.6629-.1792l19.353-9.3126c2.0339-.9785 3.3271-3.0366 3.3271-5.2945V16.4283c0-2.2579-1.2932-4.316-3.3267-5.2946L72.32 1.82112c-1.9608-.943655-4.256-.71252-5.9774.53879-.2457.17876-.4799.37834-.6999.59828L28.5938 36.7588l-16.1379-12.25c-1.5022-1.1403-3.6035-1.0468-4.99874.2223l-5.17591 4.7083c-1.706649 1.5524-1.708606 4.2374-.00423 5.7924L16.2723 47.9999 2.27702 60.7681c-1.704376 1.555-1.702419 4.2399.00423 5.7923l5.17591 4.7081c1.39524 1.2694 3.49654 1.3627 4.99874.2225l16.1379-12.2501 37.0489 33.8007c.586.5864 1.2745 1.0282 2.0144 1.3164Zm3.8573-67.6972L43.4025 47.9999 71.5144 69.339V26.6608Z"></path></g><defs><linearGradient id="e" x1="4701.01" x2="4701.01" y1="1.242" y2="9352.77" gradientUnits="userSpaceOnUse"><stop stop-color="#fff"></stop><stop offset="1" stop-color="#fff" stop-opacity="0"></stop></linearGradient></defs></svg>